<?xml version="1.0" encoding="UTF-8" standalone="no"?>
<!-- Creator: CorelDRAW 2017 -->

<svg
   xmlns:dc="http://purl.org/dc/elements/1.1/"
   xmlns:cc="http://creativecommons.org/ns#"
   xmlns:rdf="http://www.w3.org/1999/02/22-rdf-syntax-ns#"
   xmlns:svg="http://www.w3.org/2000/svg"
   xmlns="http://www.w3.org/2000/svg"
   xmlns:sodipodi="http://sodipodi.sourceforge.net/DTD/sodipodi-0.dtd"
   xmlns:inkscape="http://www.inkscape.org/namespaces/inkscape"
   xml:space="preserve"
   width="94.882202mm"
   height="41.897202mm"
   version="1.1"
   style="clip-rule:evenodd;fill-rule:evenodd;image-rendering:optimizeQuality;shape-rendering:geometricPrecision;text-rendering:geometricPrecision"
   viewBox="0 0 9488.2202 4189.7202"
   id="svg2"
   inkscape:version="0.91 r13725"
   sodipodi:docname="logo1.svg"><metadata
     id="metadata21"><rdf:RDF><cc:Work
         rdf:about=""><dc:format>image/svg+xml</dc:format><dc:type
           rdf:resource="http://purl.org/dc/dcmitype/StillImage" /><dc:title></dc:title></cc:Work></rdf:RDF></metadata><sodipodi:namedview
     pagecolor="#ffffff"
     bordercolor="#666666"
     borderopacity="1"
     objecttolerance="10"
     gridtolerance="10"
     guidetolerance="10"
     inkscape:pageopacity="0"
     inkscape:pageshadow="2"
     inkscape:window-width="1425"
     inkscape:window-height="849"
     id="namedview19"
     showgrid="false"
     inkscape:zoom="0.74649225"
     inkscape:cx="-69.853863"
     inkscape:cy="-32.039594"
     inkscape:window-x="154"
     inkscape:window-y="94"
     inkscape:window-maximized="0"
     inkscape:current-layer="Camada_x0020_1"
     fit-margin-top="2"
     fit-margin-left="2"
     fit-margin-right="2"
     fit-margin-bottom="2" /><defs
     id="defs4"><style
       type="text/css"
       id="style6"><![CDATA[
    .fil0 {fill:black}
   ]]></style></defs><g
     id="Camada_x0020_1"
     transform="translate(-9797.7876,1963.1183)"><metadata
       id="CorelCorpID_0Corel-Layer" /><g
       id="_2611870333792"
       transform="translate(9006.6476,-2120.6883)"><path
         class="fil0"
         d="m 2601.87,706.68 c 0,84.91 18.42,151.74 41.49,227.7 6.3,20.74 17.16,39.27 21.59,58.32 l -151.38,8.43 c -17.13,0.93 -37.34,-0.05 -54.79,-0.12 l -155.48,8.53 c -17.14,0.93 -37.35,-0.04 -54.8,-0.12 l -155.48,8.54 c -17.14,0.92 -37.35,-0.05 -54.79,-0.12 l -155.37,8.64 c -17.76,0.53 -36.89,-0.13 -54.82,-0.13 -290.69,-0.01 -544.69,33.65 -836.9,33.65 4.77,17.87 39.82,54.5 53.6,68.37 64.1,64.49 158.95,105.13 261.77,104.12 23.42,-0.23 38.85,4.41 54.48,3.96 17.01,-0.49 34.24,-4.19 59.12,-4 92.65,0.68 222.6,-21.03 344.85,-21.03 208.26,0 403.35,42.57 556.47,166.91 94.15,76.45 153.05,174.39 196.86,295.22 17.57,48.45 29.27,99.99 42.36,155.33 35.74,150.97 93.93,688.49 108.26,875.96 2.36,30.91 1.53,60.62 5.61,91.13 2.85,21.29 7.19,64.94 7.26,89.48 0.06,21.88 2.64,25.68 3.97,42.29 l 12.72,235.45 c -0.11,45.3 12.44,138.83 12.81,184.87 l 4.14,105.22 c 0,174.5 -85.13,421.98 -150.79,585.26 -9.57,23.8 -24.21,50.02 -30.05,75.1 87.97,-7.32 208.41,-89.06 257.44,-163.14 63.07,-95.29 94.08,-193.97 111.39,-313.41 43.93,-303.06 1.26,-687.73 1.26,-991.39 86.89,99.99 140.32,696.12 156.87,810.52 28.65,198.1 66.84,442.3 184.92,601.59 10.95,14.77 18.65,21.37 28.91,34.18 12.84,16.05 46.46,49.9 66.68,55.3 0,-66.17 -13.33,-164.34 -28.56,-228.02 -17.36,-72.58 -34.32,-137.66 -51.35,-209.42 -32.39,-136.46 -38.61,-329.54 -50.24,-471.31 -7.33,-89.27 -6.24,-212.48 -16.43,-303.23 l -4.81,-125.58 c 0.25,-28.27 -3.67,-39.95 -4.36,-62.94 -0.6,-20.2 1.56,-43.19 -0.08,-63.01 l -8.21,-122.18 c -1.16,-21.56 1.57,-45.76 -0.2,-67.1 -2.93,-35.45 -5.04,-86.97 -7.97,-122.42 -1.64,-19.82 0.52,-42.81 -0.08,-63.01 l -24.22,-430.03 c -10.59,-77.7 -2.84,-161.14 23.42,-226.64 35.51,-88.6 111.65,-150.44 195.5,-195.65 275.19,-148.4 744.07,-144.3 1075.24,-144.39 39.45,-0.01 65.58,4.47 100.88,4.26 72.84,-0.41 131.92,4.4 201.93,4.14 l 147.33,4.08 c 24.32,0.03 28.66,3.84 50.18,4.48 34.27,1.03 70.76,-0.12 105.28,-0.13 39.61,-0.01 65.2,4.2 100.94,4.2 -4.64,-17.36 -25.37,-21.9 -42.11,-29.39 -250.54,-112.22 -1007.72,-214.12 -1312.83,-247.46 -47.24,-5.17 -88.58,-8.64 -136.24,-15.17 -112.45,-15.42 -443.91,-48.67 -548.52,-48.67 0,-80.9 18.2,-169.08 32.59,-236.6 17.33,-81.31 38.9,-155.99 38.9,-242.9 0,-150.6 -165.22,-155.63 -281.77,-155.63 -56.57,0 -95.55,36.88 -132.17,65.51 -23.06,18.03 -41.67,39.48 -59.57,62.39 -36.39,46.58 -65.11,96.32 -87.14,152.6 -6.57,16.79 -15.51,47.54 -15.51,68.61 z"
         id="path11"
         inkscape:connector-curvature="0"
         style="fill:#000000" /><path
         class="fil0"
         d="m 4212.6,3381.77 c 0,-29.85 -1.48,-51.32 4.21,-75.71 l 16.82,0 c 7.83,33.64 12.06,14.12 -1.17,36.3 -9.96,16.7 -6.68,29.75 -19.86,39.41 z m 639.25,-8.41 c -76.79,0 -127.3,0.92 -197.52,-42.21 -67.84,-41.66 -71.64,-85.35 -71.64,-151.27 0,-71.27 30.25,-128.68 62.4,-168.93 14.09,-17.64 46.37,-40.26 67.94,-49.82 122.48,-54.28 302.83,-4.48 302.83,164.07 0,148.51 13,248.16 -164.01,248.16 z M 3236.91,2300.8 c 22.43,-5.99 40.89,-28.09 57.94,-43 l 55.58,-45.36 c 103.15,-80.37 267.07,-218.69 407.97,-218.69 78.76,0 113.44,71.84 117.77,147.2 8.51,148.3 16.48,460.08 4.41,605.92 -5,60.45 0.01,127.87 -0.07,189.2 -0.04,26.59 -4.57,34.96 -4.45,62.85 0.34,84.15 -0.03,168.31 0.1,252.46 0.11,76.67 2.12,48.78 -41.07,85.12 -22.77,19.15 -62.89,34.31 -93.51,36.86 l 0,138.8 c 41.45,0 98.73,6.63 135.74,11.46 94.74,12.39 336.32,22.19 432.01,22.19 -1.71,-20.49 -11.7,-27.66 -17.46,-45.63 -4.66,-14.52 -8.11,-38.72 -11.98,-55.32 172.55,115.56 364.63,128.03 556.37,51.72 19.29,-7.68 35.6,-12.95 55.23,-20.48 62.71,-24.07 118.58,-48.06 191.66,-48.06 32.07,0 77.41,29.21 100.13,42.87 29.89,17.97 63.34,36.84 96.87,50.32 68.76,27.66 78.97,36.81 132.81,-32.53 6.58,-8.46 29.75,-35.39 36.08,-39.63 0,64.63 -14.78,63.49 46.37,62.98 32.29,-0.26 69.37,7.53 100.83,8.52 107.94,3.38 242.92,26.08 349.61,-3.64 20.43,-5.69 104.58,-35.4 104.58,-59.45 0,-34.27 -112.89,-102.64 -147.22,-311.22 -5.14,-31.2 -13.56,-69.17 -9.68,-97.78 4.27,-31.41 1.31,-83.02 1.29,-116.76 l 4.83,-226.52 c 5.69,-50.74 1.82,-114.43 3.45,-168.99 0.66,-21.92 4.55,-28.68 4.44,-54.45 -0.64,-155.69 8.66,-299.36 8.31,-454.36 -0.09,-41.21 4.23,-66.9 4.21,-109.36 -0.02,-39.25 0,-78.51 0,-117.77 -128.43,0 -215.16,66.92 -305.22,132.17 -43.67,31.64 -84.69,46.95 -132.16,69.72 14.18,170.39 43.45,111.99 66.52,139.58 39.73,47.49 34.41,516.64 34.41,596.5 0,140.2 6.13,270.27 4.38,412.36 l -7.8,97.36 c -4.36,30.63 -10.77,59.02 -23.46,81.69 -12.12,21.66 -83.31,93.29 -103.49,106.8 -6.72,-28.86 -11.11,-56.64 -19.54,-85.61 L 5243.57,2788.1 c -35.09,-87.2 -80.95,-222.67 -142.46,-286.54 -20.09,-20.86 -33.27,-32.4 -55.8,-49.34 -19.34,-14.54 -44.07,-31.77 -67.32,-42.04 -78.59,-34.71 -135.02,-42.08 -227.08,-42.08 -138.15,0 -264.03,69.82 -359.92,144.76 -39.33,30.74 -122.83,132.84 -18.58,132.84 106.07,0 198.61,-84.12 311.21,-84.12 86.46,0 139.48,13.96 182.23,91.14 13.45,24.28 25.02,56.79 32.35,85.42 8.06,31.43 8.95,67.66 16.73,101.04 -165.71,0 -365.93,-11.39 -501.38,79 -71.12,47.46 -116.04,133.72 -153.34,208.37 l -66.14,118.92 c -3.11,4.79 -4.16,6.71 -6.49,10.33 -0.49,0.76 -1.13,1.84 -1.62,2.58 l -7,9.83 c 0,-39.39 14.67,-109.65 24.66,-139.37 51.19,-152.22 23.83,-162.09 41.48,-290.81 7,-51.1 1.46,-263.89 1.12,-331.16 l 14.42,-237.94 c 3.76,-25.93 4.83,-51.19 7,-77.13 3.89,-46.48 12.25,-105.63 12.25,-155.99 101.32,-23.6 252.88,-58.3 341.62,20.06 18.5,16.33 30.81,26.41 48.44,44.09 60.13,60.28 210.92,185.07 278.62,200.84 0,-202.48 -188.81,-529.84 -197.66,-567.83 -16.5,1.38 -49.15,16.45 -70.58,21.95 -77.73,19.96 -165.25,32.92 -249.07,36.9 -61.08,2.91 -467.82,23.83 -553.33,10.88 -73.65,-11.15 -193.5,11.3 -288.98,-30.64 -30.42,-13.35 -81.01,-39.09 -120.73,-39.09 -4.81,17.99 -95.67,150.31 -113.61,185.02 -11.88,23 -23.39,41.53 -35.05,65.89 -10.94,22.88 -19.74,43.84 -29.19,67.55 -31.84,79.91 -53.46,155.42 -53.46,249.37 z"
         id="path13"
         inkscape:connector-curvature="0"
         style="fill:#000000" /><path
         class="fil0"
         d="m 7059.77,3373.36 -63.09,0 c 5.09,-21.84 11,-42.25 16.82,-63.09 4.96,-17.73 16.4,-48.2 16.83,-67.3 -13.93,7.37 -27.9,11.74 -43.49,19.6 -97.24,49.02 -242.59,115 -351.83,115 -93.71,0 -153.94,-57.43 -194.68,-112.35 -27.84,-37.53 -109.47,-160.35 -112.33,-194.7 l 182.43,-69.92 c 66.69,-22.24 131.05,-37.91 200.31,-56.23 112.86,-29.86 211.22,-71.01 301.06,-140.54 14.09,-10.92 26.43,-17.41 26.94,-40.36 17.59,8.45 58.88,2.99 58.88,92.54 0,211.15 -37.85,342.29 -37.85,517.35 z m -799.06,-626.71 c 0,-105.44 12.53,-180.08 116.42,-224.26 38.71,-16.46 80.28,-15.49 123.3,-15.49 100.53,0 189.25,129.55 189.25,243.96 0,53.92 -5.29,78.54 -62.22,114.43 -67.16,42.34 -192.76,75.26 -273.88,92.01 -20.32,4.19 -40.01,12.27 -63.43,12.27 l -16.84,-109.34 c -5.86,-34.86 -12.6,-73.79 -12.6,-113.58 z m 765.41,8.41 1.26,1.26 c -0.09,-0.09 -1.68,-0.84 -1.26,-1.26 z m -130.37,-113.57 c 68.63,1.54 66.38,17.78 96.73,63.1 l -96.73,0 0,-63.1 z m 500.46,-71.5 c 0,-118.58 13.74,-112.34 -33.64,-201.89 l -297.25,161.18 c -10.28,5.75 -17.35,8.59 -28.04,14.01 -20.13,10.2 -33.31,18.95 -54.63,29.49 -25.93,12.82 -36.97,24.95 -57.46,26.65 -2.56,-30.71 -34.34,-80.7 -51.53,-99.88 -170.44,-190.23 -473.56,-146.26 -674.61,-37.49 -38.71,20.94 -93.94,63.69 -124.47,94.22 -13.65,13.65 -22.54,25.92 -35.71,40.01 -65.47,70.02 -118.81,213.06 -118.81,322.81 0,153.15 16.48,249.44 88.49,369.96 27.95,46.77 77.37,94.98 121.8,126.35 127.48,89.99 312.68,130.4 529.89,130.4 117.36,0 132.79,-48.87 190.95,-65.6 19.31,-5.55 52.72,-17.1 69.79,-18.52 0.72,32.24 31.08,39.1 63.6,49.96 125.91,42.05 382.87,0.51 512.56,0.51 l 33.65,0 c 0,-39.72 -8.96,-86.3 -24.97,-109.62 -27.59,-40.21 -96.44,6.15 -105.54,-298.23 -4.07,-136.11 -21.46,-355.89 70.57,-459.67 89.81,-101.27 196.71,-19.68 242.11,62.82 17.48,31.75 30.3,54.22 43.37,91.22 12.48,35.31 22.05,63.7 32.82,101.77 25.55,90.34 78.08,239.12 78.08,325.7 0,83.04 -57.53,154.48 -98.46,216.98 -9.88,15.09 -34.82,53.53 -36.11,69.03 l 534.1,0 c 0,-28.29 -30.54,-130.41 -39.53,-166.55 -25.62,-102.92 -96.69,-402.28 -127.11,-495.39 -51.09,-156.36 -157.46,-490.53 -342.23,-490.53 -116.59,0 -221.72,132.45 -312.92,187.56 -17.75,10.73 -31.37,14.4 -48.76,22.74 z"
         id="path15"
         inkscape:connector-curvature="0"
         style="fill:#000000" /><path
         class="fil0"
         d="m 8876.57,3348.12 0,0 z m 1202.79,-347.92 0,110.43 c -1.76,21.69 -4.64,42.15 -8.68,60.57 -25.86,117.95 -97.37,216.81 -198.19,281.27 -23.49,15.02 -49.21,29.66 -76.64,41.13 -166.56,69.59 -457.01,79.67 -615.96,26.46 -152.35,-51 -216.78,-126.14 -303.32,-171.94 0.67,30.1 26.8,98.63 29.44,130.39 -82.92,6.9 -162.16,93.97 -358.68,68.51 -38.51,-4.99 -60.91,-4.56 -94.04,-15.3 -28.35,-9.2 -49.71,-18.48 -72.21,-32.95 -142.72,-91.78 -141.03,-329.58 -131.16,-512.39 1.06,-19.58 4.47,-25.9 4.32,-50.36 -0.13,-20.24 -0.5,-33.63 2.34,-52.34 l 5.88,-153.95 c -0.1,-24.42 3.27,-30.82 4.32,-50.36 1.78,-32.93 -0.02,-71.6 -0.02,-105.17 -28.79,0 -135.82,4.16 -155.76,-0.04 -20.12,-4.25 -11.97,-11.32 -9.87,-26.08 1.73,-12.16 2.09,-23.08 3.89,-34.69 3.85,-24.72 6.79,-40.69 15.83,-59.89 l 64.91,-90.71 256.62,-290.14 c 6.7,-7.58 12.16,-11.41 18.86,-18.99 7.85,-8.89 8.49,-12 16.79,-21.06 15.89,-17.34 72.52,-59.01 91.53,-64.08 l 5.35,112.42 c 13.78,102.75 28.3,214.32 28.3,320.81 l 336.44,0 c 7.32,13.82 16.72,30.04 21.18,46.11 4.59,16.56 8.54,37.97 12.47,54.84 14.04,-6.74 31.72,-10.28 46.24,-16.85 13.09,-5.92 26.08,-11.38 40.69,-18.19 28.32,-13.2 53.82,-24.61 81.89,-35.87 232.76,-93.39 470.61,-59.35 661.44,73.35 11,7.65 23.02,17.49 32.82,26.06 11.81,10.33 20.86,16.38 31.73,27.14 41.73,41.3 73.53,80.22 106.16,129.38 31.9,48.07 56.69,101.11 77.24,162.49 14.49,43.28 23.91,96.45 27.85,149.99 z m -971.48,-215.69 c 0,-79.54 6.8,-140.07 41.71,-198.03 82.22,-136.51 242.37,-84.38 347.07,-5.74 14.74,11.08 22.2,19.24 36.61,30.68 15.95,12.66 19.27,20.96 32,35.29 113.21,127.42 177.65,292.93 177.65,495.32 0,74.95 -15.9,138.69 -45.33,186 -28.68,46.11 -80.03,83.19 -152.34,83.19 -140.18,0 -262.66,-123.25 -318.81,-211.11 -66.88,-104.63 -118.56,-245.84 -118.56,-415.6 z m -340.66,189.27 c 0,75.92 17.38,138.61 40.25,195.3 13.91,34.49 59.91,135.58 60.69,170.63 -60.35,0 -149.69,10.84 -204.36,-1.71 -17.23,-3.96 -27.49,-9.93 -37.1,-21.78 -16.45,-20.3 -23.49,-59.08 -23.49,-94.28 l 0,-647.74 c 34.03,0 50.19,-4.41 84.08,-4.24 171.51,0.89 167.69,-22.71 248.16,-29.41 -75.73,113.1 -168.23,245.69 -168.23,433.23 z"
         id="path17"
         inkscape:connector-curvature="0"
         style="fill:#000000" /></g></g></svg>