<?xml version="1.0" encoding="UTF-8" standalone="no"?>
<!-- Creator: CorelDRAW 2017 -->

<svg
   xmlns:dc="http://purl.org/dc/elements/1.1/"
   xmlns:cc="http://creativecommons.org/ns#"
   xmlns:rdf="http://www.w3.org/1999/02/22-rdf-syntax-ns#"
   xmlns:svg="http://www.w3.org/2000/svg"
   xmlns="http://www.w3.org/2000/svg"
   xmlns:sodipodi="http://sodipodi.sourceforge.net/DTD/sodipodi-0.dtd"
   xmlns:inkscape="http://www.inkscape.org/namespaces/inkscape"
   xml:space="preserve"
   width="41.551003mm"
   height="37.897202mm"
   version="1.1"
   style="clip-rule:evenodd;fill-rule:evenodd;image-rendering:optimizeQuality;shape-rendering:geometricPrecision;text-rendering:geometricPrecision"
   viewBox="0 0 4155.1003 3789.7202"
   id="svg2"
   inkscape:version="0.91 r13725"
   sodipodi:docname="logo.svg"><metadata
     id="metadata21"><rdf:RDF><cc:Work
         rdf:about=""><dc:format>image/svg+xml</dc:format><dc:type
           rdf:resource="http://purl.org/dc/dcmitype/StillImage" /><dc:title /></cc:Work></rdf:RDF></metadata><sodipodi:namedview
     pagecolor="#ffffff"
     bordercolor="#666666"
     borderopacity="1"
     objecttolerance="10"
     gridtolerance="10"
     guidetolerance="10"
     inkscape:pageopacity="0"
     inkscape:pageshadow="2"
     inkscape:window-width="1425"
     inkscape:window-height="849"
     id="namedview19"
     showgrid="false"
     inkscape:zoom="1.0556995"
     inkscape:cx="-175.88443"
     inkscape:cy="13.226963"
     inkscape:window-x="154"
     inkscape:window-y="94"
     inkscape:window-maximized="0"
     inkscape:current-layer="_2611870333792"
     fit-margin-top="0"
     fit-margin-left="0"
     fit-margin-right="0"
     fit-margin-bottom="0" /><defs
     id="defs4"><style
       type="text/css"
       id="style6"><![CDATA[
    .fil0 {fill:black}
   ]]></style></defs><g
     id="Camada_x0020_1"
     transform="translate(-9997.7876,1763.1183)"><metadata
       id="CorelCorpID_0Corel-Layer" /><g
       id="_2611870333792"
       transform="translate(9006.6476,-2120.6883)"><path
         class="fil0"
         d="m 2601.87,706.68 c 0,84.91 18.42,151.74 41.49,227.7 6.3,20.74 17.16,39.27 21.59,58.32 l -151.38,8.43 c -17.13,0.93 -37.34,-0.05 -54.79,-0.12 l -155.48,8.53 c -17.14,0.93 -37.35,-0.04 -54.8,-0.12 l -155.48,8.54 c -17.14,0.92 -37.35,-0.05 -54.79,-0.12 l -155.37,8.64 c -17.76,0.53 -36.89,-0.13 -54.82,-0.13 -290.69,-0.01 -544.69,33.65 -836.9,33.65 4.77,17.87 39.82,54.5 53.6,68.37 64.1,64.49 158.95,105.13 261.77,104.12 23.42,-0.23 38.85,4.41 54.48,3.96 17.01,-0.49 34.24,-4.19 59.12,-4 92.65,0.68 222.6,-21.03 344.85,-21.03 208.26,0 403.35,42.57 556.47,166.91 94.15,76.45 153.05,174.39 196.86,295.22 17.57,48.45 29.27,99.99 42.36,155.33 35.74,150.97 93.93,688.49 108.26,875.96 2.36,30.91 1.53,60.62 5.61,91.13 2.85,21.29 7.19,64.94 7.26,89.48 0.06,21.88 2.64,25.68 3.97,42.29 l 12.72,235.45 c -0.11,45.3 12.44,138.83 12.81,184.87 l 4.14,105.22 c 0,174.5 -85.13,421.98 -150.79,585.26 -9.57,23.8 -24.21,50.02 -30.05,75.1 87.97,-7.32 208.41,-89.06 257.44,-163.14 63.07,-95.29 94.08,-193.97 111.39,-313.41 43.93,-303.06 1.26,-687.73 1.26,-991.39 86.89,99.99 140.32,696.12 156.87,810.52 28.65,198.1 66.84,442.3 184.92,601.59 10.95,14.77 18.65,21.37 28.91,34.18 12.84,16.05 46.46,49.9 66.68,55.3 0,-66.17 -13.33,-164.34 -28.56,-228.02 -17.36,-72.58 -34.32,-137.66 -51.35,-209.42 -32.39,-136.46 -38.61,-329.54 -50.24,-471.31 -7.33,-89.27 -6.24,-212.48 -16.43,-303.23 l -4.81,-125.58 c 0.25,-28.27 -3.67,-39.95 -4.36,-62.94 -0.6,-20.2 1.56,-43.19 -0.08,-63.01 l -8.21,-122.18 c -1.16,-21.56 1.57,-45.76 -0.2,-67.1 -2.93,-35.45 -5.04,-86.97 -7.97,-122.42 -1.64,-19.82 0.52,-42.81 -0.08,-63.01 l -24.22,-430.03 c -10.59,-77.7 -2.84,-161.14 23.42,-226.64 35.51,-88.6 111.65,-150.44 195.5,-195.65 275.19,-148.4 744.07,-144.3 1075.24,-144.39 39.45,-0.01 65.58,4.47 100.88,4.26 72.84,-0.41 131.92,4.4 201.93,4.14 l 147.33,4.08 c 24.32,0.03 28.66,3.84 50.18,4.48 34.27,1.03 70.76,-0.12 105.28,-0.13 39.61,-0.01 65.2,4.2 100.94,4.2 -4.64,-17.36 -25.37,-21.9 -42.11,-29.39 -250.54,-112.22 -1007.72,-214.12 -1312.83,-247.46 -47.24,-5.17 -88.58,-8.64 -136.24,-15.17 -112.45,-15.42 -443.91,-48.67 -548.52,-48.67 0,-80.9 18.2,-169.08 32.59,-236.6 17.33,-81.31 38.9,-155.99 38.9,-242.9 0,-150.6 -165.22,-155.63 -281.77,-155.63 -56.57,0 -95.55,36.88 -132.17,65.51 -23.06,18.03 -41.67,39.48 -59.57,62.39 -36.39,46.58 -65.11,96.32 -87.14,152.6 -6.57,16.79 -15.51,47.54 -15.51,68.61 z"
         id="path11"
         inkscape:connector-curvature="0"
         style="fill:#ffffff" /></g></g></svg>